<svg xmlns="http://www.w3.org/2000/svg" width="512" height="512" viewBox="0 0 512 512">
  <rect width="512" height="512" fill="#F3F4F6"/>
  <rect x="87.04" y="87.04" width="99.12" height="99.12" rx="15.86" fill="#E53E3E"/>
  <text x="136.60" y="136.60" font-family="Arial, Helvetica, sans-serif" font-size="41.6" font-weight="700" fill="#FFFFFF" text-anchor="middle" dominant-baseline="central">R</text>
  <rect x="206.44" y="87.04" width="99.12" height="99.12" rx="15.86" fill="#38A169"/>
  <text x="256.00" y="136.60" font-family="Arial, Helvetica, sans-serif" font-size="41.6" font-weight="700" fill="#FFFFFF" text-anchor="middle" dominant-baseline="central">G</text>
  <rect x="325.84" y="87.04" width="99.12" height="99.12" rx="15.86" fill="#3182CE"/>
  <text x="375.40" y="136.60" font-family="Arial, Helvetica, sans-serif" font-size="41.6" font-weight="700" fill="#FFFFFF" text-anchor="middle" dominant-baseline="central">B</text>
  <rect x="87.04" y="206.44" width="99.12" height="99.12" rx="15.86" fill="#D69E2E"/>
  <text x="136.60" y="256.00" font-family="Arial, Helvetica, sans-serif" font-size="41.6" font-weight="700" fill="#FFFFFF" text-anchor="middle" dominant-baseline="central">Y</text>
  <rect x="206.44" y="206.44" width="99.12" height="99.12" rx="15.86" fill="#805AD5"/>
  <text x="256.00" y="256.00" font-family="Arial, Helvetica, sans-serif" font-size="41.6" font-weight="700" fill="#FFFFFF" text-anchor="middle" dominant-baseline="central">P</text>
  <rect x="325.84" y="206.44" width="99.12" height="99.12" rx="15.86" fill="#0BC5EA"/>
  <text x="375.40" y="256.00" font-family="Arial, Helvetica, sans-serif" font-size="41.6" font-weight="700" fill="#FFFFFF" text-anchor="middle" dominant-baseline="central">T</text>
  <rect x="87.04" y="325.84" width="99.12" height="99.12" rx="15.86" fill="#F97316"/>
  <text x="136.60" y="375.40" font-family="Arial, Helvetica, sans-serif" font-size="41.6" font-weight="700" fill="#FFFFFF" text-anchor="middle" dominant-baseline="central">O</text>
  <rect x="206.44" y="325.84" width="99.12" height="99.12" rx="15.86" fill="#EC4899"/>
  <text x="256.00" y="375.40" font-family="Arial, Helvetica, sans-serif" font-size="41.6" font-weight="700" fill="#FFFFFF" text-anchor="middle" dominant-baseline="central">K</text>
  <rect x="325.84" y="325.84" width="99.12" height="99.12" rx="15.86" fill="#84CC16"/>
  <text x="375.40" y="375.40" font-family="Arial, Helvetica, sans-serif" font-size="41.6" font-weight="700" fill="#FFFFFF" text-anchor="middle" dominant-baseline="central">L</text>
</svg>