<svg xmlns="http://www.w3.org/2000/svg" width="512" height="512" viewBox="0 0 512 512">
  <rect width="512" height="512" fill="#F3F4F6"/>
  <rect x="36.00" y="36.00" width="136.00" height="136.00" rx="21.76" fill="#E53E3E"/>
  <text x="104.00" y="104.00" font-family="Arial, Helvetica, sans-serif" font-size="57.1" font-weight="700" fill="#FFFFFF" text-anchor="middle" dominant-baseline="central">R</text>
  <rect x="188.00" y="36.00" width="136.00" height="136.00" rx="21.76" fill="#38A169"/>
  <text x="256.00" y="104.00" font-family="Arial, Helvetica, sans-serif" font-size="57.1" font-weight="700" fill="#FFFFFF" text-anchor="middle" dominant-baseline="central">G</text>
  <rect x="340.00" y="36.00" width="136.00" height="136.00" rx="21.76" fill="#3182CE"/>
  <text x="408.00" y="104.00" font-family="Arial, Helvetica, sans-serif" font-size="57.1" font-weight="700" fill="#FFFFFF" text-anchor="middle" dominant-baseline="central">B</text>
  <rect x="36.00" y="188.00" width="136.00" height="136.00" rx="21.76" fill="#D69E2E"/>
  <text x="104.00" y="256.00" font-family="Arial, Helvetica, sans-serif" font-size="57.1" font-weight="700" fill="#FFFFFF" text-anchor="middle" dominant-baseline="central">Y</text>
  <rect x="188.00" y="188.00" width="136.00" height="136.00" rx="21.76" fill="#805AD5"/>
  <text x="256.00" y="256.00" font-family="Arial, Helvetica, sans-serif" font-size="57.1" font-weight="700" fill="#FFFFFF" text-anchor="middle" dominant-baseline="central">P</text>
  <rect x="340.00" y="188.00" width="136.00" height="136.00" rx="21.76" fill="#0BC5EA"/>
  <text x="408.00" y="256.00" font-family="Arial, Helvetica, sans-serif" font-size="57.1" font-weight="700" fill="#FFFFFF" text-anchor="middle" dominant-baseline="central">T</text>
  <rect x="36.00" y="340.00" width="136.00" height="136.00" rx="21.76" fill="#F97316"/>
  <text x="104.00" y="408.00" font-family="Arial, Helvetica, sans-serif" font-size="57.1" font-weight="700" fill="#FFFFFF" text-anchor="middle" dominant-baseline="central">O</text>
  <rect x="188.00" y="340.00" width="136.00" height="136.00" rx="21.76" fill="#EC4899"/>
  <text x="256.00" y="408.00" font-family="Arial, Helvetica, sans-serif" font-size="57.1" font-weight="700" fill="#FFFFFF" text-anchor="middle" dominant-baseline="central">K</text>
  <rect x="340.00" y="340.00" width="136.00" height="136.00" rx="21.76" fill="#84CC16"/>
  <text x="408.00" y="408.00" font-family="Arial, Helvetica, sans-serif" font-size="57.1" font-weight="700" fill="#FFFFFF" text-anchor="middle" dominant-baseline="central">L</text>
</svg>