<?xml version="1.0" encoding="UTF-8"?>
<svg xmlns="http://www.w3.org/2000/svg" width="512" height="512" viewBox="0 0 512 512">
	<!-- Rounded square background -->
	<rect x="0" y="0" width="512" height="512" rx="48" ry="48" fill="#FFFFFF" stroke="#1F2937" stroke-width="8" />

	<!-- 3x3 grid: two vertical and two horizontal divider lines -->
	<g stroke="#1F2937" stroke-width="22" stroke-linecap="square" fill="none">
		<!-- Vertical dividers -->
		<line x1="170.6667" y1="48" x2="170.6667" y2="464" />
		<line x1="341.3333" y1="48" x2="341.3333" y2="464" />
		<!-- Horizontal dividers -->
		<line x1="48" y1="170.6667" x2="464" y2="170.6667" />
		<line x1="48" y1="341.3333" x2="464" y2="341.3333" />
	</g>

	<!-- Optional thin inner separators for crisp small sizes -->
	<g stroke="#111827" stroke-width="2" fill="none" opacity="0.08">
		<line x1="48" y1="48" x2="464" y2="48" />
		<line x1="48" y1="464" x2="464" y2="464" />
	</g>

	<!-- Colored squares centered in each 3x3 cell -->
	<g id="squares">
		<!-- Row 1 -->
		<rect x="30"  y="30"  width="100" height="100" rx="10" fill="#E53E3E" stroke="#FFFFFF" stroke-width="4" />
		<rect x="206" y="30"  width="100" height="100" rx="10" fill="#38A169" stroke="#FFFFFF" stroke-width="4" />
		<rect x="382" y="30"  width="100" height="100" rx="10" fill="#3182CE" stroke="#FFFFFF" stroke-width="4" />
		<!-- Row 2 -->
		<rect x="30"  y="206" width="100" height="100" rx="10" fill="#D69E2E" stroke="#FFFFFF" stroke-width="4" />
		<rect x="206" y="206" width="100" height="100" rx="10" fill="#805AD5" stroke="#FFFFFF" stroke-width="4" />
		<rect x="382" y="206" width="100" height="100" rx="10" fill="#0BC5EA" stroke="#FFFFFF" stroke-width="4" />
		<!-- Row 3 -->
		<rect x="30"  y="382" width="100" height="100" rx="10" fill="#F97316" stroke="#FFFFFF" stroke-width="4" />
		<rect x="206" y="382" width="100" height="100" rx="10" fill="#EC4899" stroke="#FFFFFF" stroke-width="4" />
		<rect x="382" y="382" width="100" height="100" rx="10" fill="#84CC16" stroke="#FFFFFF" stroke-width="4" />
	</g>
</svg>
